<svg width="80" height="80" viewBox="0 0 80 80" fill="none" xmlns="http://www.w3.org/2000/svg">
<rect width="80" height="80" fill="#68B738"/>
<g clip-path="url(#clip0_2403_794)">
<path d="M53.6597 27.767C53.5528 27.317 53.1494 27 52.689 27C52.687 27 52.685 27 52.683 27C47.4231 27.033 34.6325 27.916 29.4686 35.38C26.7862 39.258 26.5555 44.293 28.7825 50.345C28.7995 50.392 28.8344 50.424 28.8574 50.467C28.0615 52.44 27.7529 53.753 27.7449 53.79C27.6291 54.33 27.9736 54.862 28.5129 54.978C28.5828 54.993 28.6527 55 28.7226 55C29.183 55 29.5974 54.679 29.6983 54.21C29.7192 54.108 32.2638 43.837 41.2595 37.832C41.7189 37.526 41.8427 36.905 41.5362 36.445C41.2296 35.985 40.6104 35.86 40.151 36.168C35.05 39.573 31.9083 44.176 30.0608 47.824C28.7386 43.246 29.0851 39.447 31.1113 36.519C35.0989 30.755 44.557 29.365 50.2663 29.071C49.0379 30.872 47.6958 34.174 47.6958 40C47.6958 43.12 46.812 45.522 45.0703 47.14C42.2781 49.731 37.7423 49.974 34.4248 49.724C33.8736 49.679 33.3952 50.095 33.3533 50.646C33.3113 51.196 33.7238 51.676 34.273 51.718C34.9371 51.769 35.6462 51.8 36.3832 51.8C39.7606 51.8 43.7002 51.137 46.4275 48.606C48.5946 46.595 49.6931 43.7 49.6931 40.001C49.6931 30.902 53.1184 28.905 53.1354 28.896C53.5508 28.687 53.7685 28.219 53.6597 27.767Z" fill="white"/>
</g>
<defs>
<clipPath id="clip0_2403_794">
<rect width="31.9565" height="32" fill="white" transform="translate(24 25)"/>
</clipPath>
</defs>
</svg>
